<?xml version="1.0"?>
<svg xmlns="http://www.w3.org/2000/svg" id="Layer_1" data-name="Layer 1" viewBox="0 0 64 64"><title>Dusk Part 2</title><path d="M18,40,61,8,4.85,27.65a2,2,0,0,0-.43,3.57Z" style="fill:#faefde;"/><path d="M29,45,63,8,47.82,54.49a2,2,0,0,1-3,1Z" style="fill:#faefde;"/><polygon points="18 40 57 12 27.38 45.9 24 58 18 40" style="fill:#efd8be;"/><polygon points="27 54 28 46 32 48 27 54" style="fill:#f6d397;"/><path d="M62.79,7.14a2,2,0,0,0-2.06-.45l-56.23,20A3,3,0,0,0,3.88,32l13.52,8.6,4.63,17A2,2,0,0,0,24,59h0a2,2,0,0,0,1.67-.94A.93.93,0,0,0,25.8,58L32.54,49l11.7,7.38a3,3,0,0,0,1.6.46,3,3,0,0,0,1-.18,3,3,0,0,0,1.83-1.91L63.3,9.19A2,2,0,0,0,62.79,7.14ZM4.5,29.36a1,1,0,0,1,.66-.83L57.66,9.9,18,38.6,5,30.32A1,1,0,0,1,4.5,29.36ZM24,57l-4.63-17L54.58,14.6,27.26,44.32l0,0a1,1,0,0,0-.13.22,1,1,0,0,0-.07.14v0ZM27,53l1.62-6.47L30.85,48Zm21.32-3.66-.06-.05a1,1,0,0,0-1.37.34l-1,1.71a1,1,0,0,0,1.38,1.36L46.8,54.2a1,1,0,0,1-1.49.54h0L29.55,44.79,60.63,11Z" style="fill:#8d6c9f;"/><path d="M15.29,49.51.29,60.44a1,1,0,1,0,1.18,1.62l15-10.94a1,1,0,0,0-1.18-1.62Z" style="fill:#8d6c9f;"/><path d="M2.88,53.32a1,1,0,0,0,.59-.19l5-3.65A1,1,0,1,0,7.3,47.85l-5,3.65a1,1,0,0,0,.59,1.81Z" style="fill:#8d6c9f;"/><path d="M12.09,46.84,14.59,45a1,1,0,1,0-1.18-1.62l-2.5,1.82a1,1,0,0,0,1.18,1.62Z" style="fill:#8d6c9f;"/><path d="M18.88,36l1-1.71a1,1,0,0,0-1.71-1l-1,1.71a1,1,0,0,0,1.71,1Z" style="fill:#8d6c9f;"/><path d="M33.36,45a1,1,0,0,0,1.37-.34l1-1.71A1,1,0,1,0,34,42l-1,1.71A1,1,0,0,0,33.36,45Z" style="fill:#8d6c9f;"/><path d="M37.65,47.61A1,1,0,0,0,39,47.27l1-1.71a1,1,0,1,0-1.71-1l-1,1.71A1,1,0,0,0,37.65,47.61Z" style="fill:#8d6c9f;"/><path d="M41.93,50.19a1,1,0,0,0,1.37-.34l1-1.71a1,1,0,0,0-1.71-1l-1,1.71A1,1,0,0,0,41.93,50.19Z" style="fill:#8d6c9f;"/><path d="M11,27.73a1,1,0,0,0-1.37.34l-1,1.71a1,1,0,0,0,1.71,1l1-1.71A1,1,0,0,0,11,27.73Z" style="fill:#8d6c9f;"/><path d="M15.28,30.31a1,1,0,0,0-1.37.34l-1,1.71a1,1,0,0,0,1.71,1l1-1.71A1,1,0,0,0,15.28,30.31Z" style="fill:#8d6c9f;"/></svg>
